<?xml version="1.0" encoding="UTF-8" standalone="no"?>
<svg
   xmlns:dc="http://purl.org/dc/elements/1.1/"
   xmlns:cc="http://creativecommons.org/ns#"
   xmlns:rdf="http://www.w3.org/1999/02/22-rdf-syntax-ns#"
   xmlns:svg="http://www.w3.org/2000/svg"
   xmlns="http://www.w3.org/2000/svg"
   xmlns:sodipodi="http://sodipodi.sourceforge.net/DTD/sodipodi-0.dtd"
   xmlns:inkscape="http://www.inkscape.org/namespaces/inkscape"
   viewBox="0 0 111 30"
   class="svg-icon svg-icon-netflix-logo"
   focusable="true"
   version="1.1"
   id="svg6"
   sodipodi:docname="netflix-logo.svg"
   inkscape:version="0.92.2 (5c3e80d, 2017-08-06)">
  <metadata
     id="metadata12">
    <rdf:RDF>
      <cc:Work
         rdf:about="">
        <dc:format>image/svg+xml</dc:format>
        <dc:type
           rdf:resource="http://purl.org/dc/dcmitype/StillImage" />
      </cc:Work>
    </rdf:RDF>
  </metadata>
  <defs
     id="defs10" />
  <sodipodi:namedview
     pagecolor="#ffffff"
     bordercolor="#666666"
     borderopacity="1"
     objecttolerance="10"
     gridtolerance="10"
     guidetolerance="10"
     inkscape:pageopacity="0"
     inkscape:pageshadow="2"
     inkscape:window-width="1600"
     inkscape:window-height="837"
     id="namedview8"
     showgrid="false"
     inkscape:zoom="3.0067964"
     inkscape:cx="48.72588"
     inkscape:cy="38.996685"
     inkscape:window-x="-8"
     inkscape:window-y="-8"
     inkscape:window-maximized="1"
     inkscape:current-layer="svg6" />
  <title
     id="title2" />
  <g
     id="netflix-logo"
     style="fill:#e50914;fill-opacity:1"
     inkscape:export-xdpi="43.243244"
     inkscape:export-ydpi="43.243244">
    <path
       d="M105.062 14.28L111 30c-1.75-.25-3.499-.563-5.28-.845l-3.345-8.686-3.437 7.969c-1.687-.282-3.344-.376-5.031-.595l6.031-13.75L94.468 0h5.063l3.062 7.874L105.875 0h5.124l-5.937 14.28zM90.47 0h-4.594v27.25c1.5.094 3.062.156 4.594.343V0zm-8.563 26.937c-4.187-.281-8.375-.53-12.656-.625V0h4.687v21.875c2.688.062 5.375.28 7.969.405v4.657zM64.25 10.657v4.687h-6.406V26H53.22V0h13.125v4.687h-8.5v5.97h6.406zm-18.906-5.97V26.25c-1.563 0-3.156 0-4.688.062V4.687h-4.844V0h14.406v4.687h-4.874zM30.75 15.593c-2.062 0-4.5 0-6.25.095v6.968c2.75-.188 5.5-.406 8.281-.5v4.5l-12.968 1.032V0H32.78v4.687H24.5V11c1.813 0 4.594-.094 6.25-.094v4.688zM4.78 12.968v16.375C3.094 29.531 1.593 29.75 0 30V0h4.469l6.093 17.032V0h4.688v28.062c-1.656.282-3.344.376-5.125.625L4.78 12.968z"
       id="Fill-14"
       style="fill:#e50914;fill-opacity:1" />
  </g>
</svg>
